<?xml version="1.0" encoding="UTF-8"?>
<svg id="Layer_1" data-name="Layer 1" xmlns="http://www.w3.org/2000/svg" viewBox="0 0 249.77 53.36">
  <defs>
    <style>
      .cls-1 {
        fill: #ff7654;
      }

      .cls-2 {
        fill: #fff;
      }
    </style>
  </defs>
  <g>
    <polygon class="cls-1" points="17.99 5.59 6.13 11.88 6.13 22.06 15.12 17.54 15.12 47.41 25.55 47.41 25.55 5.59 17.99 5.59"/>
    <path class="cls-1" d="M64.17,12.4c-1.22-2.31-2.94-4.11-5.13-5.38-2.18-1.25-4.7-1.88-7.49-1.88h-5.92c-2.87,0-5.44.63-7.65,1.88-2.24,1.26-3.98,3.07-5.2,5.38-1.2,2.27-1.8,4.91-1.8,7.84v12.51c0,2.93.62,5.57,1.84,7.85,1.23,2.31,2.99,4.11,5.22,5.37h0c2.21,1.25,4.76,1.88,7.59,1.88h5.92c2.83,0,5.37-.63,7.55-1.89,2.19-1.26,3.91-3.07,5.11-5.38,1.18-2.27,1.77-4.9,1.77-7.83v-12.51c0-2.92-.61-5.56-1.8-7.84ZM55.49,20.13v12.73c0,1.72-.4,3.1-1.19,4.1-.73.92-1.64,1.35-2.87,1.35h-5.7c-1.32,0-2.3-.44-3.09-1.38-.84-1-1.25-2.33-1.25-4.07v-12.73c0-1.73.41-3.07,1.25-4.07.79-.94,1.77-1.38,3.09-1.38h5.7c1.23,0,2.14.43,2.87,1.35.79,1,1.19,2.37,1.19,4.1Z"/>
    <g>
      <path class="cls-1" d="M95.47,34.01l13.23-13.85-13.25.02-6.62,6.82c.38,3.59,3.11,6.45,6.63,7.02Z"/>
      <path class="cls-1" d="M88.73,27.1h-.01s-6.73-6.92-6.73-6.92l-13.25-.02,13.25,13.87c3.55-.52,6.32-3.36,6.74-6.93Z"/>
      <path class="cls-1" d="M95.59,34.19c-3.57.52-6.36,3.39-6.76,7l6.24,6.53h13.66s-13.14-13.53-13.14-13.53Z"/>
      <path class="cls-1" d="M81.86,34.18l-13.16,13.55h13.66s6.36-6.66,6.36-6.66h0c-.45-3.59-3.28-6.43-6.87-6.9Z"/>
    </g>
  </g>
  <g>
    <path class="cls-2" d="M126.82,46.26c-2.17-1.29-3.85-3.1-5.03-5.45s-1.78-5.07-1.78-8.16v-12.05c0-3.09.6-5.82,1.81-8.17s2.9-4.17,5.09-5.45c2.19-1.29,4.73-1.93,7.62-1.93h6.39c2.73,0,5.15.59,7.26,1.78,2.11,1.18,3.74,2.84,4.88,4.97,1.14,2.13,1.72,4.58,1.72,7.35h-5.6c0-2.69-.75-4.86-2.26-6.51-1.51-1.65-3.51-2.47-6-2.47h-6.39c-2.61,0-4.73.96-6.36,2.89s-2.44,4.48-2.44,7.65v11.81c0,3.17.78,5.72,2.35,7.65s3.64,2.89,6.21,2.89h6.51c2.57,0,4.63-.91,6.18-2.74,1.55-1.83,2.32-4.23,2.32-7.2h5.6c0,2.97-.58,5.6-1.75,7.89s-2.81,4.06-4.94,5.3c-2.13,1.25-4.6,1.87-7.41,1.87h-6.51c-2.81,0-5.3-.64-7.47-1.93Z"/>
    <path class="cls-2" d="M163.03,5.52h21.15c3.25,0,5.87.91,7.86,2.74s2.98,4.23,2.98,7.2v4.34c0,2.09-.65,3.94-1.96,5.54s-3.08,2.77-5.33,3.5v.06c2.37,1.41,4.14,3.98,5.3,7.71l3.32,11.09h-5.91l-3.25-10.85c-.56-1.89-1.46-3.37-2.68-4.46-1.23-1.08-2.62-1.63-4.19-1.63h-11.57v16.93h-5.73V5.52ZM182.62,25.71c2.01,0,3.62-.54,4.85-1.63,1.22-1.08,1.84-2.51,1.84-4.28v-4.4c0-1.45-.48-2.61-1.45-3.5-.96-.88-2.23-1.32-3.8-1.32h-15.31v15.13h13.86Z"/>
    <path class="cls-2" d="M204.25,5.52h5.3l14.64,27.06,14.28-27.06h5.3v42.18h-5.6v-31.46l-11.09,20.73c-.48.88-.94,1.51-1.36,1.87-.42.36-.91.54-1.48.54h-1.63l-12.71-23.14v31.46h-5.67V5.52Z"/>
  </g>
</svg>