<?xml version="1.0" encoding="UTF-8"?>
<svg id="Layer_1" data-name="Layer 1" xmlns="http://www.w3.org/2000/svg" viewBox="0 0 101.28 72.56">
  <defs>
    <style>
      .cls-1 {
        fill: #ff7654;
      }
    </style>
  </defs>
  <g>
    <path class="cls-1" d="M69.55,32.06l25.05-26.22-29.44.04-10.59,10.91c3.42,6.42,8.63,11.73,14.98,15.27Z"/>
    <path class="cls-1" d="M45.78,16.72l-10.52-10.84-29.44-.04,25.01,26.18c6.34-3.55,11.54-8.87,14.95-15.3Z"/>
    <path class="cls-1" d="M69.75,41.41c-6.46,3.54-11.75,8.91-15.21,15.42l9.79,10.24h30.34s-24.92-25.66-24.92-25.66Z"/>
    <path class="cls-1" d="M30.63,41.45l-24.88,25.63h30.34s9.72-10.18,9.72-10.18c-3.44-6.52-8.73-11.9-15.18-15.45Z"/>
  </g>
  <path class="cls-1" d="M50.15,53.46c-.35-9.07-7.6-16.32-16.67-16.67,9.07-.35,16.32-7.6,16.67-16.67.35,9.07,7.6,16.32,16.67,16.67-9.07.35-16.32,7.6-16.67,16.67Z"/>
</svg>